<!DOCTYPE svg PUBLIC "-//W3C//DTD SVG 1.1//EN" "http://www.w3.org/Graphics/SVG/1.1/DTD/svg11.dtd">
<!-- Uploaded to: SVG Repo, www.svgrepo.com, Transformed by: SVG Repo Mixer Tools -->
<svg height="800px" width="800px" version="1.1" id="Layer_1" xmlns="http://www.w3.org/2000/svg" xmlns:xlink="http://www.w3.org/1999/xlink" viewBox="-51.2 -51.2 614.40 614.40" xml:space="preserve" fill="#000000" transform="matrix(1, 0, 0, 1, 0, 0)rotate(45)" stroke="#000000">
<g id="SVGRepo_bgCarrier" stroke-width="0" transform="translate(0,0), scale(1)">
<path transform="translate(-51.2, -51.2), scale(38.4)" fill="#b0d7f3" d="M9.166.33a2.25 2.25 0 00-2.332 0l-5.25 3.182A2.25 2.25 0 00.5 5.436v5.128a2.25 2.25 0 001.084 1.924l5.25 3.182a2.25 2.25 0 002.332 0l5.25-3.182a2.25 2.25 0 001.084-1.924V5.436a2.25 2.25 0 00-1.084-1.924L9.166.33z" strokewidth="0"/>
</g>
<g id="SVGRepo_tracerCarrier" stroke-linecap="round" stroke-linejoin="round" stroke="#CCCCCC" stroke-width="1.024"/>
<g id="SVGRepo_iconCarrier"> <circle style="fill:#c8eaf6;" cx="261.069" cy="254.226" r="225.29"/> <g> <polygon style="opacity:0.31;fill:#1a5fb4;enable-background:new ;" points="336.561,254.403 298.659,319.692 223.167,319.512 185.576,254.044 223.478,188.755 298.97,188.934 "/> <path style="fill:#1a5fb4;" d="M256,7.604c-37.804,0-83.369,14.336-83.369,14.336C76.452,56.2,7.604,148.06,7.604,256 c0,137.186,111.21,248.396,248.396,248.396S504.396,393.186,504.396,256S393.186,7.604,256,7.604z M256,456.222 C145.42,456.222,55.778,366.58,55.778,256S145.42,55.778,256,55.778S456.222,145.42,456.222,256S366.58,456.222,256,456.222z"/> </g> <path style="opacity:0.24;fill:#5e5c64;enable-background:new ;" d="M398.161,53.946c29.167,40.712,46.342,90.597,46.342,144.498 c0,137.186-111.21,248.396-248.396,248.396c-53.901,0-103.787-17.175-144.498-46.342c45.065,62.905,118.769,103.898,202.053,103.898 c137.186,0,248.396-111.21,248.396-248.396C502.058,172.715,461.065,99.012,398.161,53.946z"/> <path d="M437.019,74.981C388.668,26.629,324.38,0,256,0c-4.2,0-7.604,3.405-7.604,7.604s3.404,7.604,7.604,7.604 c132.773,0,240.792,108.019,240.792,240.792S388.773,496.792,256,496.792S15.208,388.773,15.208,256 c0-101.629,64.289-192.812,159.974-226.897c3.956-1.409,6.02-5.759,4.612-9.715c-1.409-3.955-5.757-6.02-9.715-4.611 c-49.3,17.561-91.559,49.419-122.207,92.13C16.554,150.551,0,202.106,0,256c0,68.38,26.629,132.668,74.981,181.019 C123.332,485.371,187.62,512,256,512s132.668-26.629,181.019-74.981C485.371,388.668,512,324.38,512,256 S485.371,123.332,437.019,74.981z"/> <path d="M51.489,324.99c24.767,73.223,87.832,128.946,165.238,143.236c0.322,0.084,0.648,0.146,0.974,0.188 c12.433,2.236,25.232,3.405,38.299,3.405c119.002,0,215.818-96.816,215.818-215.819c0-102.431-71.732-188.42-167.599-210.383 c-0.305-0.086-0.612-0.154-0.921-0.201c-15.227-3.418-31.054-5.235-47.298-5.235C136.997,40.181,40.181,136.997,40.181,256 c0,21.956,3.305,43.153,9.428,63.129c-0.029,0.272-0.046,0.546-0.046,0.826C49.566,321.89,50.297,323.65,51.489,324.99z M214.751,452.337C147.586,438.244,92.68,390.453,68.584,327.533l209.326-0.287l7.944,0.019L214.751,452.337z M213.375,287.189 l-19.019-33.125l33.494-57.696l66.712,0.159l33.219,57.854l-33.494,57.696l-16.27-0.039c-0.002,0-0.005,0-0.007,0 c-0.003,0-0.007,0-0.011,0h-0.083l-50.342-0.12l-14.185-24.706c-0.001-0.001-0.001-0.002-0.002-0.003L213.375,287.189z M256,456.611 c-8.562,0-16.998-0.541-25.282-1.588l86.374-151.938l0,0l19.433-33.474l68.837,119.886c0.031,0.055,0.071,0.101,0.103,0.155 C368.706,430.719,315.323,456.611,256,456.611z M447.522,196.247c5.904,18.881,9.087,38.953,9.087,59.753 c0,45.471-15.216,87.45-40.811,121.132l-91.438-159.249c-0.001-0.002-0.003-0.005-0.004-0.007l-12.323-21.461h133.909 C446.484,196.414,447.013,196.355,447.522,196.247z M256,55.389c11.674,0,23.113,1.014,34.246,2.936l-15.167,26.167 c-2.107,3.633-0.868,8.286,2.766,10.392c1.2,0.696,2.512,1.027,3.806,1.027c2.623,0,5.175-1.36,6.585-3.792l17.65-30.45 c62.072,15.943,112.615,60.924,136.252,119.536H246.582l-9.971-0.023l24.772-42.735c2.107-3.633,0.868-8.286-2.766-10.392 c-3.633-2.106-8.286-0.867-10.391,2.766L187.334,235.87c0,0.001-0.001,0.002-0.001,0.003l-1.951,3.361l-72.299-123.86 C149.495,78.373,200.111,55.389,256,55.389z M102.357,127.166l97.895,167.71c0,0.001,0.001,0.001,0.001,0.002l9.906,17.254 l-146.708,0.201c-5.24-17.879-8.063-36.781-8.063-56.332C55.389,206.994,73.062,162.044,102.357,127.166z"/> </g>
</svg>