<?xml version="1.0" encoding="UTF-8" standalone="no"?>
<!-- Uploaded to: SVG Repo, www.svgrepo.com, Generator: SVG Repo Mixer Tools -->

<svg
   width="800px"
   height="800px"
   viewBox="0 0 24 24"
   version="1.1"
   id="svg12838"
   sodipodi:docname="logo.svg"
   inkscape:version="1.1.2 (0a00cf5339, 2022-02-04)"
   xmlns:inkscape="http://www.inkscape.org/namespaces/inkscape"
   xmlns:sodipodi="http://sodipodi.sourceforge.net/DTD/sodipodi-0.dtd"
   xmlns="http://www.w3.org/2000/svg"
   xmlns:svg="http://www.w3.org/2000/svg">
  <defs
     id="defs12842" />
  <sodipodi:namedview
     id="namedview12840"
     pagecolor="#ffffff"
     bordercolor="#666666"
     borderopacity="1.0"
     inkscape:pageshadow="2"
     inkscape:pageopacity="0.0"
     inkscape:pagecheckerboard="0"
     showgrid="false"
     inkscape:zoom="0.48875"
     inkscape:cx="-468.5422"
     inkscape:cy="749.87212"
     inkscape:window-width="2506"
     inkscape:window-height="1376"
     inkscape:window-x="0"
     inkscape:window-y="0"
     inkscape:window-maximized="1"
     inkscape:current-layer="g12836">
    <inkscape:grid
       type="xygrid"
       id="grid13200" />
  </sodipodi:namedview>
  <g
     id="g12836">
    <path
       fill="none"
       d="M0 0h24v24H0z"
       id="path12832" />
    <path
       d="M9.827 21.763L14.31 14l3.532 6.117A9.955 9.955 0 0 1 12 22c-.746 0-1.473-.082-2.173-.237zM7.89 21.12A10.028 10.028 0 0 1 2.458 15h8.965L7.89 21.119zM2.05 13a9.964 9.964 0 0 1 2.583-7.761L9.112 13H2.05zm4.109-9.117A9.955 9.955 0 0 1 12 2c.746 0 1.473.082 2.173.237L9.69 10 6.159 3.883zM16.11 2.88A10.028 10.028 0 0 1 21.542 9h-8.965l3.533-6.119zM21.95 11a9.964 9.964 0 0 1-2.583 7.761L14.888 11h7.064z"
       id="path12834"
       style="fill:#1a237e;fill-opacity:1;stroke:none;stroke-opacity:1;stroke-width:0.15;stroke-miterlimit:4;stroke-dasharray:0.6, 0.15;stroke-dashoffset:0" />
    <g
       id="g13471"
       transform="matrix(0.94460045,0,0,0.94460045,27.256622,6.2784954)"
       style="fill:#ffd600;fill-opacity:1">
      <path
         d="m -15.871085,5.9212992 c -0.127313,0 -0.230507,0.1031932 -0.230507,0.2305067 0,0.1273134 0.103194,0.2305066 0.230507,0.2305066 0.127314,0 0.230507,-0.1031932 0.230507,-0.2305066 0,-0.1273135 -0.103193,-0.2305067 -0.230507,-0.2305067 z"
         fill="#1c274c"
         id="path13386"
         style="fill:#ffd600;fill-opacity:1;stroke-width:0.184405" />
      <path
         fill-rule="evenodd"
         clip-rule="evenodd"
         d="m -16.997353,6.5316439 c -0.109712,-0.1272581 -0.164567,-0.1908964 -0.164567,-0.379838 0,-0.1889418 0.05485,-0.25258 0.164567,-0.3798363 0.219064,-0.2541067 0.586457,-0.5421902 1.126268,-0.5421902 0.53981,0 0.9072,0.2880816 1.126274,0.5421902 0.109703,0.1272563 0.164563,0.1908945 0.164563,0.3798363 0,0.1889416 -0.05486,0.2525799 -0.164563,0.379838 -0.219074,0.2541104 -0.586464,0.5421884 -1.126274,0.5421884 -0.539811,0 -0.907204,-0.288078 -1.126268,-0.5421884 z m 0.619155,-0.379838 c 0,-0.2800749 0.227038,-0.5071146 0.507113,-0.5071146 0.280075,0 0.507115,0.2270397 0.507115,0.5071146 0,0.2800747 -0.22704,0.5071145 -0.507115,0.5071145 -0.280075,0 -0.507113,-0.2270398 -0.507113,-0.5071145 z"
         fill="#1c274c"
         id="path13388"
         style="fill:#ffd600;fill-opacity:1;stroke-width:0.184405" />
    </g>
    <g
       id="g13908"
       transform="matrix(0.20420524,0,0,0.20420524,13.563376,9.1217106)"
       style="fill:#1a237e;fill-opacity:1">
      <path
         d="m -4.467045,4.9861756 c 1.9068,0 3.2615,0.00159 4.2892,0.13976 1.006,0.13527 1.5857,0.38893 2.0089,0.81214 0.4871,0.48714 0.6992,0.86476 0.8166,1.53794 0.1324,0.75876 0.1353,1.84108 0.1353,3.7601604 0,0.41422 0.3358,0.75 0.75,0.75 0.4142,0 0.75,-0.33578 0.75,-0.75 v -0.09631 c 10e-5,-1.7991904 10e-5,-3.0179804 -0.1576,-3.9217004 -0.1754,-1.00534 -0.5492,-1.65631 -1.2336,-2.34075 -0.7484,-0.74836 -1.6973,-1.08048 -2.8698,-1.2381 -1.1392,-0.15317 -2.5948,-0.15316 -4.4326,-0.15314 h -0.0564 c -0.4142,0 -0.75,0.33579 -0.75,0.75 0,0.41421 0.3358,0.75 0.75,0.75 z"
         fill="#1c274c"
         id="path13841"
         style="fill:#1a237e;fill-opacity:1" />
      <path
         d="m -16.467035,16.486176 c 0.41421,0 0.75,0.3358 0.75,0.75 0,1.9191 0.0029,3.0014 0.13528,3.7602 0.11746,0.6731 0.32948,1.0508 0.81662,1.5379 0.42321,0.4232 1.00285,0.6769 2.00894,0.8121 1.02767,0.1382 2.38233,0.1398 4.28915,0.1398 0.4142,0 0.75,0.3358 0.75,0.75 0,0.4142 -0.3358,0.75 -0.75,0.75 h -0.05641 c -1.83776,0 -3.29339,0 -4.43261,-0.1531 -1.17242,-0.1577 -2.12137,-0.4898 -2.86973,-1.2381 -0.68444,-0.6845 -1.05821,-1.3355 -1.23363,-2.3408 -0.1577,-0.9037 -0.15767,-2.1225 -0.15762,-3.9216 l 10e-6,-0.0964 c 0,-0.4142 0.33578,-0.75 0.75,-0.75 z"
         fill="#1c274c"
         id="path13843"
         style="fill:#1a237e;fill-opacity:1" />
      <path
         d="m 3.532955,16.486176 c 0.4142,0 0.75,0.3358 0.75,0.75 v 0.0963 c 10e-5,1.7992 10e-5,3.018 -0.1576,3.9217 -0.1754,1.0053 -0.5492,1.6563 -1.2336,2.3408 -0.7484,0.7483 -1.6973,1.0804 -2.8698,1.2381 -1.1392,0.1531 -2.5948,0.1531 -4.4326,0.1531 h -0.0564 c -0.4142,0 -0.75,-0.3358 -0.75,-0.75 0,-0.4142 0.3358,-0.75 0.75,-0.75 1.9068,0 3.2615,-0.0016 4.2892,-0.1398 1.006,-0.1352 1.5857,-0.3889 2.0089,-0.8121 0.4871,-0.4871 0.6992,-0.8648 0.8166,-1.5379 0.1324,-0.7588 0.1353,-1.8411 0.1353,-3.7602 0,-0.4142 0.3358,-0.75 0.75,-0.75 z"
         fill="#1c274c"
         id="path13845"
         style="fill:#1a237e;fill-opacity:1" />
      <path
         d="m -8.523455,3.4861756 h 0.05641 c 0.4142,0 0.75,0.33579 0.75,0.75 0,0.41421 -0.3358,0.75 -0.75,0.75 -1.90681,0 -3.26148,0.00159 -4.28915,0.13976 -1.00609,0.13527 -1.58573,0.38893 -2.00894,0.81214 -0.48714,0.48714 -0.69916,0.86476 -0.81662,1.53794 -0.1324,0.75876 -0.13528,1.84108 -0.13528,3.7601604 0,0.41422 -0.33579,0.75 -0.75,0.75 -0.41422,0 -0.75,-0.33578 -0.75,-0.75 l -10e-6,-0.09631 c -5e-5,-1.7991604 -8e-5,-3.0179904 0.15762,-3.9217004 0.17542,-1.00534 0.54919,-1.65631 1.23363,-2.34075 0.74836,-0.74836 1.69731,-1.08048 2.86973,-1.2381 1.13921,-0.15317 2.59486,-0.15316 4.43261,-0.15314 z"
         fill="#1c274c"
         id="path13847"
         style="fill:#1a237e;fill-opacity:1" />
    </g>
  </g>
</svg>
